<?xml version="1.0" encoding="utf-8"?>
<!-- Generator: Adobe Illustrator 19.0.0, SVG Export Plug-In . SVG Version: 6.00 Build 0)  -->
<svg version="1.1" id="Layer_1" xmlns="http://www.w3.org/2000/svg" xmlns:xlink="http://www.w3.org/1999/xlink" x="0px" y="0px"
	 viewBox="-1925 1926 400 400" style="enable-background:new -1925 1926 400 400;" xml:space="preserve">
<style type="text/css">
	.st0{fill:#009EE5;}
	.st1{fill:none;stroke:#282828;stroke-width:6;stroke-linecap:round;stroke-linejoin:round;stroke-miterlimit:10;}
</style>
<circle class="st0" cx="-1809.9" cy="2147.6" r="20.4"/>
<circle class="st0" cx="-1642.1" cy="2147.6" r="20.4"/>
<path class="st1" d="M-1722.4,2155c0-10.6-8.3-17.2-13.7-20.4"/>
<path class="st1" d="M-1709,2135.1c-2.4,1.5-4.7,3.2-6.7,5.2c-3.9,3.9-6.8,9-6.8,14.6"/>
<line class="st1" x1="-1722.4" y1="2155" x2="-1722.4" y2="2169.8"/>
<path class="st1" d="M-1736.5,2134.4c0.1,0,0.1,0.1,0.2,0.1l0.1,0.1c4.5,2.5,14.9,6.6,27.2,0.5l0,0c0.7-0.3,1.4-0.7,2.1-1.1"/>
<path class="st1" d="M-1727.4,2139c1.1,0.2,10.2,0,10.2,0l-5.1,8.6L-1727.4,2139z"/>
<g id="Layer_2">
</g>
<g>
	<path class="st1" d="M-1824,2107.7c-1.1-2.2,1.2-8.1,1.5-11c0.4-3.5,0.1-5.8-0.6-9c-1.3-6.1-2.4-9.5,2.1-14.5
		c9.2-10.2,15.6-21.7,23.9-32.4c5.5-7,11.1-14.9,15.9-22c-3.4,3.6-4.7,8.8-6.5,13.4c-2.3,5.9-5.3,10.5-6.3,16.9
		c-2.3,14.7,2.2,24.6,10.5,36.1c0.5,1.2-11.6,11.7-12.9,13c-13.8,14.4-17.1,38.5-13.4,57.5c2.1,10.8,6.7,21.1,13.2,30
		c6.6,9.1,16.3,14.5,23.3,23c5.3,6.5,1.5,12.8,2.3,20.3c0-0.5-0.2-0.9-0.5-1.2"/>
	<path class="st1" d="M-1817,2025.2c0.6,3.3-7.7,16.6-9.9,21.5c-3.1,7.1-6,14.4-9.2,21.5c-6.5,14.1-11.2,27.6-3.6,42.4
		c2.4,4.8,7.4,12.2,12.7,14.1"/>
	<path class="st1" d="M-1786.3,2081c0,0,4.9,7.2,18.6,13"/>
	<path class="st1" d="M-1628,2107.6c1.1-2.2-1.2-8.1-1.5-11c-0.4-3.5-0.1-5.8,0.6-9c1.3-6.1,2.4-9.5-2.1-14.5
		c-9.2-10.2-15.6-21.7-23.9-32.4c-5.5-7-11.1-14.9-15.9-22c3.4,3.6,4.7,8.8,6.5,13.4c2.3,5.9,5.3,10.5,6.3,16.9
		c2.3,14.7-2.2,24.6-10.5,36.1c-0.5,1.2,11.6,11.7,12.9,13c13.8,14.4,17.1,38.5,13.4,57.5c-2.1,10.8-6.7,21.1-13.2,30
		c-6.6,9.1-16.3,14.5-23.3,23c-5.3,6.5-1.5,12.8-2.3,20.3c0-0.5,0.2-0.9,0.5-1.2"/>
	<path class="st1" d="M-1635,2025.1c-0.6,3.3,7.7,16.6,9.9,21.5c3.1,7.1,6,14.4,9.2,21.5c6.5,14.1,11.2,27.6,3.6,42.4
		c-2.4,4.8-7.4,12.2-12.7,14.1"/>
	<path class="st1" d="M-1665.7,2080.9c0,0-4.9,7.2-18.6,13"/>
	<line class="st1" x1="-1722.5" y1="2142.4" x2="-1722.5" y2="2228.9"/>
</g>
<path class="st1" d="M-1781.1,2018.7c0.6,0.7,19.5,22.6,41,4.5"/>
<path class="st1" d="M-1672.4,2019.3c-0.6,0.7-19.5,22.6-41,4.5"/>
</svg>
