<?xml version="1.0" encoding="utf-8"?>
<!-- Generator: Adobe Illustrator 19.0.0, SVG Export Plug-In . SVG Version: 6.00 Build 0)  -->
<svg version="1.1" id="Layer_1" xmlns="http://www.w3.org/2000/svg" xmlns:xlink="http://www.w3.org/1999/xlink" x="0px" y="0px"
	 viewBox="-1925 1926 400 400" style="enable-background:new -1925 1926 400 400;" xml:space="preserve">
<style type="text/css">
	.st0{fill:#009EE5;}
	.st1{fill:none;stroke:#282828;stroke-width:6;stroke-linecap:round;stroke-linejoin:round;stroke-miterlimit:10;}
	.st2{fill:none;stroke:#282828;stroke-width:5.6328;stroke-linecap:round;stroke-linejoin:round;stroke-miterlimit:10;}
</style>
<circle class="st0" cx="-1753.2" cy="2058.5" r="20.4"/>
<circle class="st0" cx="-1725" cy="2183.8" r="20.4"/>
<g id="Layer_2">
</g>
<g>
	<path class="st1" d="M-1824,2214.6c-1.1-2.2,1.2-8.1,1.5-11c0.4-3.5,0.1-5.8-0.6-9c-1.3-6.1-2.4-9.5,2.1-14.5
		c9.2-10.2,15.6-21.7,23.9-32.4c5.5-7,11.1-14.9,15.9-22c-3.4,3.6-4.7,8.8-6.5,13.4c-2.3,5.9-5.3,10.5-6.3,16.9
		c-2.3,14.7,2.2,24.6,10.5,36.1c0.5,1.2-11.6,11.7-12.9,13"/>
	<path class="st1" d="M-1817,2132.1c0.6,3.3-7.7,16.6-9.9,21.5c-3.1,7.1-6,14.4-9.2,21.5c-6.5,14.1-11.2,27.6-3.6,42.4
		c2.4,4.8,7.4,12.2,12.7,14.1"/>
	<path class="st1" d="M-1786.3,2187.9c0,0,4.9,7.2,18.6,13"/>
	<path class="st1" d="M-1628,2214.5c1.1-2.2-1.2-8.1-1.5-11c-0.4-3.5-0.1-5.8,0.6-9c1.3-6.1,2.4-9.5-2.1-14.5
		c-9.2-10.2-15.6-21.7-23.9-32.4c-5.5-7-11.1-14.9-15.9-22c3.4,3.6,4.7,8.8,6.5,13.4c2.3,5.9,5.3,10.5,6.3,16.9
		c2.3,14.7-2.2,24.6-10.5,36.1c-0.5,1.2,11.6,11.7,12.9,13"/>
	<path class="st1" d="M-1635,2132c-0.6,3.3,7.7,16.6,9.9,21.5c3.1,7.1,6,14.4,9.2,21.5c6.5,14.1,11.2,27.6,3.6,42.4
		c-2.4,4.8-7.4,12.2-12.7,14.1"/>
	<path class="st1" d="M-1665.7,2187.8c0,0-4.9,7.2-18.6,13"/>
	<path class="st1" d="M-1722.5,2249.3"/>
</g>
<path class="st1" d="M-1781.1,2125.6c0.6,0.7,19.5,22.6,41,4.5"/>
<path class="st1" d="M-1672.4,2126.2c-0.6,0.7-19.5,22.6-41,4.5"/>
<path class="st2" d="M-1751.8,2043.9c0,0-7,8,0,16c7,8-18.1,13.3-18.1,13.3"/>
<path class="st2" d="M-1693,2043.9c0,0,7,8,0,16c-7,8,18.1,13.3,18.1,13.3"/>
<path class="st2" d="M-1686.2,2025.7c0,15.2-16.3,27.4-36.4,27.4c-20.1,0-36.4-12.3-36.4-27.4"/>
<path class="st1" d="M-1734.5,2181.8c5.3,5.3,13.8,5.3,19.1,0"/>
</svg>
